<?xml version="1.0" encoding="utf-8"?>
<!-- Generator: Adobe Illustrator 27.0.0, SVG Export Plug-In . SVG Version: 6.00 Build 0)  -->
<svg version="1.1" id="Layer_1" xmlns="http://www.w3.org/2000/svg" xmlns:xlink="http://www.w3.org/1999/xlink" x="0px" y="0px"
	 viewBox="0 0 704.28 557.75" style="enable-background:new 0 0 704.28 557.75;" xml:space="preserve">
<style type="text/css">
	.st0{fill:url(#SVGID_1_);}
	.st1{fill:url(#SVGID_00000017498744592491194700000003153810732481939622_);}
	.st2{fill:url(#SVGID_00000080198509143017398660000000413431593215167672_);}
	.st3{fill:url(#SVGID_00000062888543540092382530000009002469202213600928_);}
	.st4{fill:url(#SVGID_00000067212083913228592570000002934310335294023838_);}
	.st5{fill:url(#SVGID_00000109020195122880106860000005543882455376738702_);}
	.st6{fill:url(#SVGID_00000106148678775672812260000007433964467693537670_);}
	.st7{fill:url(#SVGID_00000031923528084047441790000012648317451936256149_);}
	.st8{fill:url(#SVGID_00000114795925775852755730000008897441696122600072_);}
	.st9{fill:url(#SVGID_00000064342103421566251090000011320381862120545945_);}
	.st10{fill:url(#SVGID_00000061456377786527427050000013762425292273062797_);}
	.st11{fill:url(#SVGID_00000160908899402985292510000006206694695372331666_);}
	.st12{fill:url(#SVGID_00000085936374476164691560000002383743880295115953_);}
	.st13{fill:url(#SVGID_00000163780697673943262140000004096134460779826879_);}
	.st14{fill:url(#SVGID_00000104684811302177444120000005793602607883410872_);}
	.st15{opacity:0.2;}
</style>
<g>
	<linearGradient id="SVGID_1_" gradientUnits="userSpaceOnUse" x1="50.0315" y1="480.5078" x2="146.067" y2="480.5078">
		<stop  offset="0" style="stop-color:#414141"/>
		<stop  offset="1" style="stop-color:#8F8F8F"/>
	</linearGradient>
	<path class="st0" d="M81.15,494.89H62.21l-3.82,10.13c-0.7,1.71-2.34,2.73-4.05,2.73c-0.55,0-1.01-0.08-1.48-0.23
		c-2.26-0.86-3.35-3.35-2.57-5.61L67.51,456c0.7-1.71,2.42-2.81,4.13-2.73c1.79-0.08,3.43,1.01,4.13,2.73l17.23,45.91
		c0.78,2.26-0.31,4.75-2.57,5.61c-0.39,0.16-0.94,0.23-1.48,0.23c-1.71,0-3.35-1.01-3.98-2.73L81.15,494.89z M77.95,486.32
		l-6.31-16.76l-6.31,16.76H77.95z"/>
	
		<linearGradient id="SVGID_00000145027092123544845900000005043424972340156846_" gradientUnits="userSpaceOnUse" x1="50.0315" y1="480.4709" x2="146.067" y2="480.4709">
		<stop  offset="0" style="stop-color:#414141"/>
		<stop  offset="1" style="stop-color:#8F8F8F"/>
	</linearGradient>
	<path style="fill:url(#SVGID_00000145027092123544845900000005043424972340156846_);" d="M145.29,460.05l-28.68,39.05h25.1
		c2.42,0,4.36,1.95,4.36,4.36c0,2.42-1.95,4.29-4.36,4.29h-33.59c-0.23,0-0.47,0-0.78-0.08c-0.08,0-0.16,0-0.23-0.08
		c-0.16,0-0.31-0.08-0.55-0.08c-0.08-0.08-0.16-0.08-0.23-0.23c-0.08,0-0.23-0.08-0.39-0.16c-0.16-0.08-0.23-0.08-0.31-0.16
		c0,0,0,0,0-0.08c-0.08,0-0.16-0.08-0.23-0.16c-0.08-0.08-0.23-0.23-0.31-0.39c-0.16-0.08-0.23-0.16-0.31-0.23
		c-0.08-0.08-0.16-0.23-0.23-0.31c-0.08-0.23-0.16-0.31-0.16-0.39c-0.08-0.16-0.23-0.23-0.23-0.39c-0.08-0.16-0.08-0.31-0.16-0.47
		c0-0.08-0.08-0.16-0.08-0.31c0-0.23-0.08-0.39-0.08-0.55c0-0.08,0-0.16,0-0.23c0,0,0,0,0-0.08c0-0.23,0-0.39,0.08-0.55
		c0-0.08,0-0.16,0-0.39c0.08-0.08,0.08-0.23,0.16-0.39c0-0.08,0.08-0.23,0.08-0.39c0.16-0.08,0.23-0.23,0.23-0.31
		c0.08-0.08,0.16-0.23,0.23-0.39c0,0,0,0,0.08,0l28.6-39.13h-25.18c-2.42,0-4.29-2.03-4.29-4.36c0-2.42,1.87-4.29,4.29-4.29h33.59
		h0.08c0.23,0,0.39,0,0.55,0c0.08,0,0.23,0.08,0.31,0.08c0.23,0,0.31,0.08,0.47,0.08c0.08,0.08,0.23,0.08,0.31,0.16
		c0.23,0,0.31,0.16,0.39,0.23c0.16,0.08,0.23,0.16,0.39,0.23c0,0,0,0,0.08,0c0.16,0.08,0.16,0.16,0.23,0.23
		c0.16,0.08,0.23,0.23,0.31,0.31c0.08,0.08,0.16,0.23,0.23,0.31c0.16,0.08,0.23,0.16,0.31,0.31s0.16,0.31,0.23,0.39
		c0,0.08,0.08,0.23,0.16,0.31c0,0.23,0.08,0.39,0.08,0.47c0.16,0.16,0.16,0.23,0.16,0.39c0.08,0.23,0.08,0.31,0.08,0.47
		c0,0.08,0,0.16,0,0.31c0,0.23,0,0.39,0,0.55c-0.08,0.16-0.08,0.23-0.08,0.31c0,0.23-0.16,0.31-0.16,0.47
		c-0.08,0.16-0.08,0.23-0.16,0.47c-0.08,0.08-0.08,0.16-0.16,0.23c-0.08,0.16-0.16,0.31-0.23,0.39
		C145.29,460.05,145.29,460.05,145.29,460.05z"/>
	
		<linearGradient id="SVGID_00000010269147888725693700000002433201576600454333_" gradientUnits="userSpaceOnUse" x1="158.2637" y1="480.4709" x2="654.2507" y2="480.4709">
		<stop  offset="0" style="stop-color:#005A6F"/>
		<stop  offset="1" style="stop-color:#00D4A5"/>
	</linearGradient>
	<path style="fill:url(#SVGID_00000010269147888725693700000002433201576600454333_);" d="M158.26,503.46v-45.99
		c0-2.34,1.87-4.29,4.29-4.29s4.36,1.95,4.36,4.29v41.62h21.12c2.26,0,4.29,1.95,4.29,4.36c0,2.34-2.03,4.29-4.29,4.29h-25.25
		c-0.16,0-0.16,0-0.16,0c-0.08,0-0.08,0-0.08,0C160.13,507.75,158.26,505.8,158.26,503.46z"/>
	
		<linearGradient id="SVGID_00000006672988626272270220000011262001251464682165_" gradientUnits="userSpaceOnUse" x1="158.2637" y1="480.5078" x2="654.2507" y2="480.5078">
		<stop  offset="0" style="stop-color:#005A6F"/>
		<stop  offset="1" style="stop-color:#00D4A5"/>
	</linearGradient>
	<path style="fill:url(#SVGID_00000006672988626272270220000011262001251464682165_);" d="M229.97,494.89h-18.94l-3.82,10.13
		c-0.7,1.71-2.34,2.73-4.05,2.73c-0.55,0-1.01-0.08-1.48-0.23c-2.26-0.86-3.35-3.35-2.57-5.61L216.33,456
		c0.7-1.71,2.42-2.81,4.13-2.73c1.79-0.08,3.43,1.01,4.13,2.73l17.23,45.91c0.78,2.26-0.31,4.75-2.57,5.61
		c-0.39,0.16-0.94,0.23-1.48,0.23c-1.71,0-3.35-1.01-3.97-2.73L229.97,494.89z M226.77,486.32l-6.31-16.76l-6.31,16.76H226.77z"/>
	
		<linearGradient id="SVGID_00000056415421577999852710000013670225494750643386_" gradientUnits="userSpaceOnUse" x1="158.2637" y1="480.4709" x2="654.2507" y2="480.4709">
		<stop  offset="0" style="stop-color:#005A6F"/>
		<stop  offset="1" style="stop-color:#00D4A5"/>
	</linearGradient>
	<path style="fill:url(#SVGID_00000056415421577999852710000013670225494750643386_);" d="M252.49,503.46v-45.99
		c0-2.42,1.95-4.29,4.29-4.29c0.08,0,0.08,0,0.23,0c0,0,0,0,0.08,0h10.76c8.18,0,14.81,6.62,14.81,14.81c0,3.35-1.09,6.39-2.96,8.89
		c4.68,2.96,7.87,8.18,7.87,14.11c0,9.27-7.48,16.76-16.68,16.76h-13.8c-0.08,0-0.08-0.08-0.08-0.08c-0.16,0-0.16,0.08-0.23,0.08
		C254.44,507.75,252.49,505.8,252.49,503.46z M261.14,474.31h6.7c3.43,0,6.16-2.88,6.16-6.31c0-3.43-2.73-6.16-6.16-6.16h-6.7
		V474.31z M261.14,499.1h9.74c4.44-0.08,8.03-3.59,8.03-8.11c0-4.44-3.59-7.95-8.03-8.03h-9.74V499.1z"/>
	
		<linearGradient id="SVGID_00000065059509151536543350000003649128559839041929_" gradientUnits="userSpaceOnUse" x1="158.2637" y1="479.6914" x2="654.2507" y2="479.6914">
		<stop  offset="0" style="stop-color:#005A6F"/>
		<stop  offset="1" style="stop-color:#00D4A5"/>
	</linearGradient>
	<path style="fill:url(#SVGID_00000065059509151536543350000003649128559839041929_);" d="M341.8,459.97
		c4.83,5.14,7.87,12,7.87,19.72s-3.04,14.65-7.87,19.72c-4.6,5.07-11.46,8.34-18.63,8.34c-7.48,0-14.34-3.27-19.1-8.34
		c-4.83-5.07-7.72-12-7.72-19.72s2.88-14.58,7.72-19.72c4.75-5.14,11.61-8.34,19.1-8.34C330.35,451.63,337.21,454.83,341.8,459.97z
		 M340.79,479.69c0-5.3-2.1-10.21-5.3-13.64c-3.27-3.51-7.64-5.53-12.31-5.53c-4.99,0-9.35,2.03-12.63,5.53
		c-3.27,3.43-5.3,8.34-5.3,13.64s2.03,10.21,5.3,13.56c3.27,3.51,7.64,5.61,12.63,5.61c4.68,0,9.04-2.1,12.31-5.61
		C338.69,489.9,340.79,484.99,340.79,479.69z"/>
	
		<linearGradient id="SVGID_00000049206092878699694650000011882171452396168349_" gradientUnits="userSpaceOnUse" x1="158.2637" y1="480.4709" x2="654.2507" y2="480.4709">
		<stop  offset="0" style="stop-color:#005A6F"/>
		<stop  offset="1" style="stop-color:#00D4A5"/>
	</linearGradient>
	<path style="fill:url(#SVGID_00000049206092878699694650000011882171452396168349_);" d="M401.11,501.28
		c0.78,2.26-0.47,4.68-2.73,5.46c-0.31,0.08-0.94,0.23-1.71,0.23c0,0,0,0-0.08,0c-0.78,0-1.95-0.16-3.04-0.86
		c-1.01-0.62-1.87-1.64-2.49-2.73c-1.09-2.26-1.64-5.07-1.64-9.35c-0.08-1.48-0.39-2.49-0.94-3.35c-0.47-0.86-1.4-1.64-2.34-2.26
		c-1.64-1.09-3.66-1.71-4.36-1.87h-9.2v16.91c0,2.34-1.95,4.29-4.36,4.29s-4.29-1.95-4.29-4.29v-45.99c0-2.42,1.87-4.29,4.29-4.29
		c0,0,0,0,0.08,0h13.87c9.28,0,16.68,7.48,16.68,16.76c0,5.14-2.34,9.66-6.08,12.78c1.01,0.78,1.95,1.71,2.73,2.88
		c1.56,2.26,2.57,5.14,2.57,8.42c-0.08,2.34,0.16,3.82,0.31,4.6C399.63,499.02,400.64,499.96,401.11,501.28z M390.2,469.95
		c0-4.52-3.59-8.11-8.03-8.11h-9.59v16.06h9.59C386.61,477.9,390.2,474.31,390.2,469.95z"/>
	
		<linearGradient id="SVGID_00000002351895406556293100000008720874671184917680_" gradientUnits="userSpaceOnUse" x1="158.2637" y1="480.5078" x2="654.2507" y2="480.5078">
		<stop  offset="0" style="stop-color:#005A6F"/>
		<stop  offset="1" style="stop-color:#00D4A5"/>
	</linearGradient>
	<path style="fill:url(#SVGID_00000002351895406556293100000008720874671184917680_);" d="M441.56,494.89h-18.94l-3.82,10.13
		c-0.7,1.71-2.34,2.73-4.05,2.73c-0.55,0-1.01-0.08-1.48-0.23c-2.26-0.86-3.35-3.35-2.57-5.61L427.92,456
		c0.7-1.71,2.42-2.81,4.13-2.73c1.79-0.08,3.43,1.01,4.13,2.73l17.23,45.91c0.78,2.26-0.31,4.75-2.57,5.61
		c-0.39,0.16-0.94,0.23-1.48,0.23c-1.71,0-3.35-1.01-3.97-2.73L441.56,494.89z M438.36,486.32l-6.31-16.76l-6.31,16.76H438.36z"/>
	
		<linearGradient id="SVGID_00000150083600688210763070000000673867345956422823_" gradientUnits="userSpaceOnUse" x1="158.2637" y1="480.4709" x2="654.2507" y2="480.4709">
		<stop  offset="0" style="stop-color:#005A6F"/>
		<stop  offset="1" style="stop-color:#00D4A5"/>
	</linearGradient>
	<path style="fill:url(#SVGID_00000150083600688210763070000000673867345956422823_);" d="M489.65,461.84h-12.39v41.62
		c0,2.42-1.87,4.29-4.29,4.29c-2.34,0-4.29-1.87-4.29-4.29v-41.62h-12.31c-2.42,0-4.29-2.03-4.29-4.36c0-2.42,1.87-4.29,4.29-4.29
		h33.28c2.34,0,4.29,1.87,4.29,4.29C493.93,459.82,491.99,461.84,489.65,461.84z"/>
	
		<linearGradient id="SVGID_00000074401116980486840070000017740510932353107122_" gradientUnits="userSpaceOnUse" x1="158.2637" y1="479.6914" x2="654.2507" y2="479.6914">
		<stop  offset="0" style="stop-color:#005A6F"/>
		<stop  offset="1" style="stop-color:#00D4A5"/>
	</linearGradient>
	<path style="fill:url(#SVGID_00000074401116980486840070000017740510932353107122_);" d="M545.53,459.97
		c4.83,5.14,7.87,12,7.87,19.72s-3.04,14.65-7.87,19.72c-4.6,5.07-11.46,8.34-18.63,8.34c-7.48,0-14.34-3.27-19.1-8.34
		c-4.83-5.07-7.72-12-7.72-19.72s2.88-14.58,7.72-19.72c4.75-5.14,11.61-8.34,19.1-8.34C534.07,451.63,540.93,454.83,545.53,459.97z
		 M544.52,479.69c0-5.3-2.1-10.21-5.3-13.64c-3.27-3.51-7.64-5.53-12.31-5.53c-4.99,0-9.35,2.03-12.63,5.53
		c-3.27,3.43-5.3,8.34-5.3,13.64s2.03,10.21,5.3,13.56c3.27,3.51,7.64,5.61,12.63,5.61c4.68,0,9.04-2.1,12.31-5.61
		C542.41,489.9,544.52,484.99,544.52,479.69z"/>
	
		<linearGradient id="SVGID_00000126284985786784562080000007437233036509507247_" gradientUnits="userSpaceOnUse" x1="158.2637" y1="480.4709" x2="654.2507" y2="480.4709">
		<stop  offset="0" style="stop-color:#005A6F"/>
		<stop  offset="1" style="stop-color:#00D4A5"/>
	</linearGradient>
	<path style="fill:url(#SVGID_00000126284985786784562080000007437233036509507247_);" d="M604.84,501.28
		c0.78,2.26-0.47,4.68-2.73,5.46c-0.31,0.08-0.94,0.23-1.71,0.23c0,0,0,0-0.08,0c-0.78,0-1.95-0.16-3.04-0.86
		c-1.01-0.62-1.87-1.64-2.49-2.73c-1.09-2.26-1.64-5.07-1.64-9.35c-0.08-1.48-0.39-2.49-0.94-3.35c-0.47-0.86-1.4-1.64-2.34-2.26
		c-1.64-1.09-3.66-1.71-4.36-1.87h-9.2v16.91c0,2.34-1.95,4.29-4.36,4.29s-4.29-1.95-4.29-4.29v-45.99c0-2.42,1.87-4.29,4.29-4.29
		c0,0,0,0,0.08,0h13.87c9.28,0,16.68,7.48,16.68,16.76c0,5.14-2.34,9.66-6.08,12.78c1.01,0.78,1.95,1.71,2.73,2.88
		c1.56,2.26,2.57,5.14,2.57,8.42c-0.08,2.34,0.16,3.82,0.31,4.6C603.36,499.02,604.37,499.96,604.84,501.28z M593.92,469.95
		c0-4.52-3.59-8.11-8.03-8.11h-9.59v16.06h9.59C590.34,477.9,593.92,474.31,593.92,469.95z"/>
	
		<linearGradient id="SVGID_00000145777148296114107440000003409260854184441264_" gradientUnits="userSpaceOnUse" x1="158.2637" y1="480.7534" x2="654.2507" y2="480.7534">
		<stop  offset="0" style="stop-color:#005A6F"/>
		<stop  offset="1" style="stop-color:#00D4A5"/>
	</linearGradient>
	<path style="fill:url(#SVGID_00000145777148296114107440000003409260854184441264_);" d="M653.47,460.52l-15.98,21.9v21.04
		c0,2.42-1.87,4.29-4.29,4.29c-2.26,0-4.29-1.87-4.29-4.29v-21.04l-15.82-21.9c-1.48-1.87-1.09-4.52,0.86-5.92s4.6-1.01,5.92,0.94
		l13.33,18.24l13.33-18.24c1.48-1.95,4.13-2.34,6-0.94S654.79,458.65,653.47,460.52z"/>
	
		<linearGradient id="SVGID_00000140016721672010958940000015052784598941570190_" gradientUnits="userSpaceOnUse" x1="432.037" y1="354.0733" x2="549.9099" y2="354.0733">
		<stop  offset="0" style="stop-color:#414141"/>
		<stop  offset="1" style="stop-color:#8F8F8F"/>
	</linearGradient>
	<path style="fill:url(#SVGID_00000140016721672010958940000015052784598941570190_);" d="M549.91,353.84
		c0,7.89-2.77,14.43-8.28,19.64c-5.52,5.2-12.39,7.8-20.59,7.8h-89c7.39-7.22,11.14-16.5,11.14-27.56c0-4.73-1.03-9.82-3.06-15.11
		l-0.06-0.16l-4.88-11.6h85.85c8.52,0,15.46,2.44,20.83,7.33C547.22,339.1,549.91,345.64,549.91,353.84z"/>
	
		<linearGradient id="SVGID_00000119818720511111166380000004903273063778529672_" gradientUnits="userSpaceOnUse" x1="143.1654" y1="224.8169" x2="432.2828" y2="224.8169">
		<stop  offset="0" style="stop-color:#005A6F"/>
		<stop  offset="1" style="stop-color:#00D4A5"/>
	</linearGradient>
	<path style="fill:url(#SVGID_00000119818720511111166380000004903273063778529672_);" d="M429.94,342.52l-22.69-54.06l-35.78-85.24
		l-34.44-82.05l-2.46-5.85h-2.37c-11.35,0-20.87-3.55-28.29-10.54c-7.61-7.14-11.47-16.51-11.47-27.81c0-9.21,2.95-17.41,8.53-24.01
		c-1.87-0.93-3.82-1.63-5.8-2.11c-2.03-0.47-4.12-0.71-6.26-0.71c-6.24-0.63-11.84,0.78-16.82,4.21
		c-4.98,3.43-8.72,8.25-11.21,14.48l-6.99,16.76c-1.75-1.19-3.73-2.04-5.85-2.46l-0.26-0.48c-0.77-1.43-1.76-2.69-2.89-3.79
		c-2.91-2.83-6.85-4.51-11.07-4.51c-2.62,0-5.23,0.66-7.54,1.91l-26.02,14.09c-7.69,4.15-10.58,13.81-6.43,21.51l0.27,0.5
		c-1.71,4.24-1.58,9.19,0.76,13.51l17.21,31.82l6.67,12.33l-74.17,178.11c-0.94,3.12-1.41,6.07-1.41,8.87
		c0,7.48,2.11,13.39,6.31,17.76c4.21,4.35,10.36,6.53,18.45,6.53h70.28c6.81,4.35,14.09,8.02,21.74,10.9
		c12.78,4.8,26.61,7.44,41.05,7.44c14.3,0,28.22-2.58,41.21-7.44c7.61-2.86,14.9-6.51,21.76-10.9h42.16c6.84,0,12.91-2.57,18.21-7.7
		c5.29-5.13,7.95-11.75,7.95-19.86C432.28,350.31,431.5,346.57,429.94,342.52z M342.21,290.54l-26.01,14.07
		c-0.76,0.41-1.57,0.6-2.37,0.6c-1.77,0-3.49-0.95-4.4-2.61l-1.08-2.01l34.79-18.82l1.08,2
		C345.54,286.21,344.63,289.23,342.21,290.54z M205.44,99.93l26.01-14.09c0.76-0.4,1.57-0.6,2.37-0.6c1.77,0,3.49,0.95,4.39,2.62
		l1.09,2l-34.78,18.82l-1.09-2C202.12,104.27,203.02,101.24,205.44,99.93z M300.99,388.74c-58.63,0-106.15-47.54-106.15-106.15
		c0-28.67,11.36-54.68,29.82-73.79c-0.54-1.94-0.81-4-0.81-6.11c0-9.36,5.58-17.4,13.59-21.02l-33.01-61.01
		c-1.31-2.42-0.41-5.45,2.01-6.76l36.17-19.58c0.75-0.4,1.56-0.59,2.37-0.59c1.77,0,3.48,0.94,4.39,2.61l93.87,173.45
		c1.32,2.41,0.41,5.45-2.01,6.75l-36.17,19.58c-0.75,0.4-1.56,0.6-2.37,0.6c-1.77,0-3.49-0.95-4.39-2.61l-37.04-68.46
		c6.43-5.59,10.15-14.06,8.54-22.88c-0.01,3-0.59,6-1.75,8.77c-3.36,8.36-11.96,14.15-20.97,14.15h-0.2v0.02
		c-3.13,0-6.09-0.64-8.81-1.75c-14.9,15.97-23.07,36.66-23.07,58.61c0,22.97,8.95,44.57,25.19,60.81
		c16.24,16.25,37.84,25.2,60.82,25.2c20.69,0,39.7-7.35,54.56-19.58h28.24C364.33,373.24,334.48,388.74,300.99,388.74z
		 M411.21,340.67c-1.83,1.83-4.35,2.96-7.13,2.96H276.66c-2.78,0-5.3-1.13-7.12-2.96c-1.82-1.83-2.96-4.34-2.96-7.12
		c0-5.57,4.52-10.08,10.08-10.08h127.42c5.57,0,10.08,4.51,10.08,10.08C414.16,336.33,413.03,338.84,411.21,340.67z"/>
	
		<linearGradient id="SVGID_00000023253661332675464880000002748452193760549289_" gradientUnits="userSpaceOnUse" x1="303.3382" y1="161.2652" x2="556.5281" y2="161.2652">
		<stop  offset="0" style="stop-color:#414141"/>
		<stop  offset="1" style="stop-color:#8F8F8F"/>
	</linearGradient>
	<path style="fill:url(#SVGID_00000023253661332675464880000002748452193760549289_);" d="M556.53,77.93c0,1.5-0.13,3-0.41,4.5
		c-0.41,2.25-1.14,4.5-2.18,6.74c-1.03,2.25-2.38,4.5-4.03,6.74L416.5,267.24l-4.12,5.29l-25.95-61.81l4.12-5.3l57.22-73.7
		l0.03-0.03l21.17-27.26H332.2c-8.52,0-15.46-2.52-20.82-7.58c-4.7-4.41-7.34-10.03-7.92-16.88c-0.09-0.97-0.12-1.98-0.12-3
		c0-0.98,0.04-1.94,0.12-2.89c0.6-6.59,3.33-12.09,8.16-16.51c1.87-1.71,3.89-3.14,6.08-4.26c4.24-2.21,9.09-3.31,14.5-3.31h193.57
		c7.58,0,14.59,2.69,21.06,8.05C553.29,63.42,556.53,70.05,556.53,77.93z"/>
	<path class="st15" d="M334.57,115.33l2.46,5.85h-4.82c-12.71,0-23.87-4.2-32.3-12.13c-7.65-7.19-12.19-16.74-13.13-27.63
		c-0.12-1.43-0.18-2.92-0.18-4.43c0-1.48,0.07-2.97,0.19-4.41c0.75-8.09,3.61-15.48,8.37-21.71c1.99,0.48,3.93,1.18,5.8,2.11
		c-5.58,6.6-8.53,14.8-8.53,24.01c0,11.31,3.86,20.67,11.47,27.81c7.42,6.99,16.94,10.54,28.29,10.54H334.57z"/>
	<path class="st15" d="M445.56,336.49c-0.07-0.14-0.12-0.3-0.19-0.45l-3.85-9.19h-6.34l4.88,11.6l0.06,0.16
		c2.03,5.29,3.06,10.38,3.06,15.11c0,11.06-3.75,20.34-11.14,27.56h7.84c6-7.63,9.15-17.05,9.15-27.56
		C449.02,348.26,447.86,342.45,445.56,336.49z"/>
	<polygon class="st15" points="386.43,210.72 412.38,272.53 416.5,267.24 390.55,205.42 	"/>
</g>
</svg>
